<svg width="172" height="100" viewBox="0 0 172 100" fill="none" xmlns="http://www.w3.org/2000/svg">
<path d="M4.47726 43.0888V26.925C4.47726 26.5428 4.58647 26.2151 4.85951 25.9421C5.07793 25.7237 5.40558 25.5599 5.78783 25.5599H24.5181C24.9003 25.5599 25.228 25.7237 25.501 25.9421C25.7194 26.2151 25.8833 26.5428 25.8833 26.925V43.0888C25.8833 43.744 26.1017 44.1809 26.5385 44.5085C26.9754 44.8362 27.5215 45 28.1221 45C28.6682 45 29.2143 44.8362 29.6511 44.5085C30.088 44.1809 30.361 43.744 30.361 43.0888V16.5497C30.361 13.9285 29.9242 11.5804 29.0505 9.61457C28.1768 7.64872 26.9754 6.06511 25.5556 4.75454C24.1358 3.44396 22.4976 2.51564 20.6956 1.86036C18.8389 1.20507 17.0369 0.87743 15.1803 0.87743C13.3236 0.87743 11.467 1.20507 9.66493 1.86036C7.80829 2.51564 6.22468 3.44396 4.8049 4.75454C3.38511 6.06511 2.18376 7.64872 1.31004 9.61457C0.436326 11.5804 -0.00053072 13.9285 -0.00053072 16.5497V43.0888C-0.00053072 43.744 0.217898 44.1809 0.654755 44.5085C1.09161 44.8362 1.63768 45 2.23836 45C2.78443 45 3.33051 44.8362 3.76736 44.5085C4.20422 44.1809 4.47726 43.744 4.47726 43.0888ZM25.8833 19.7715C25.8833 20.1538 25.7194 20.4814 25.501 20.6998C25.228 20.9729 24.9003 21.0821 24.5181 21.0821H5.78783C5.40558 21.0821 5.07793 20.9729 4.85951 20.6998C4.58647 20.4814 4.47726 20.1538 4.47726 19.7715V16.5497C4.47726 14.6384 4.75029 12.9456 5.35097 11.5258C5.95165 10.106 6.77075 8.95929 7.75368 8.03096C8.73661 7.15725 9.88336 6.44736 11.1939 6.0105C12.5045 5.57364 13.8151 5.35522 15.1803 5.35522C16.4908 5.35522 17.8014 5.57364 19.112 6.0105C20.4225 6.44736 21.5693 7.15725 22.5522 8.03096C23.5351 8.95929 24.3543 10.106 24.9549 11.5258C25.5556 12.9456 25.8833 14.693 25.8833 16.6589V19.7715ZM62.9022 17.6964C62.6292 17.6964 62.3561 17.6418 62.1377 17.4234C60.8271 16.5497 59.4073 15.8398 57.8783 15.4029C56.3493 14.9661 54.7657 14.693 53.1821 14.693C51.3255 14.693 49.4688 15.0207 47.6668 15.676C45.8102 16.3312 44.2266 17.2596 42.8068 18.5701C41.387 19.8807 40.1856 21.5189 39.3119 23.4848C38.4382 25.4506 38.0013 27.7987 38.0013 30.4199C38.0013 33.0956 38.4382 35.3891 39.3119 37.355C40.1856 39.3209 41.3324 40.9591 42.7522 42.2696C44.172 43.5802 45.8102 44.5085 47.6668 45.1638C49.4688 45.8191 51.3255 46.0921 53.1821 46.0921C54.7657 46.0921 56.3493 45.8737 57.8783 45.4369C59.4073 45 60.8271 44.3447 62.1377 43.3618C62.3561 43.198 62.6292 43.0888 62.9568 43.0888C63.1752 43.0888 63.3937 43.198 63.6121 43.4164C63.8305 43.6348 63.9943 43.7986 64.1582 44.0171C64.4858 44.727 65.1411 45.0546 66.124 45.0546C66.7247 45.0546 67.2708 44.8908 67.7076 44.5085C68.1445 44.1263 68.3629 43.6348 68.3629 42.9795V2.73407C68.3629 2.13339 68.0899 1.69654 67.653 1.36889C67.2162 1.09586 66.6701 0.932036 66.124 0.932036C65.5233 0.932036 64.9773 1.09586 64.5404 1.36889C64.1036 1.69654 63.8851 2.13339 63.8851 2.73407V16.7135C63.8851 17.0411 63.7759 17.2596 63.6121 17.4234C63.3937 17.6418 63.1752 17.6964 62.9022 17.6964ZM53.1821 41.6144C51.7623 41.6144 50.4518 41.3959 49.1958 40.9591C47.8852 40.5222 46.7385 39.8669 45.7556 38.9386C44.7726 38.0649 43.9535 36.8635 43.3528 35.4437C42.7522 34.024 42.4791 32.3858 42.4791 30.4199C42.4791 28.454 42.7522 26.8158 43.3528 25.396C43.9535 23.9763 44.7726 22.8295 45.7556 21.9012C46.7385 20.9729 47.8852 20.263 49.1958 19.8261C50.5064 19.3893 51.817 19.1708 53.1821 19.1708C54.4927 19.1708 55.8033 19.3893 57.1138 19.8261C58.4244 20.263 59.5712 20.9729 60.5541 21.9012C61.537 22.8295 62.3561 23.9763 62.9568 25.396C63.5575 26.8158 63.8851 28.454 63.8851 30.4199C63.8851 32.3858 63.5575 34.024 62.9568 35.4437C62.3561 36.8635 61.537 38.0649 60.5541 38.9386C59.5712 39.8669 58.4244 40.5222 57.1138 40.9591C55.8033 41.3959 54.4927 41.6144 53.1821 41.6144ZM91.7885 46.0921C93.6452 46.0921 95.4472 45.8191 97.3038 45.1638C99.1059 44.5085 100.744 43.5256 102.164 42.215C103.584 40.9045 104.785 39.2663 105.659 37.3004C106.532 35.3345 106.969 33.041 106.969 30.3653C106.969 27.7441 106.532 25.396 105.659 23.4302C104.785 21.4643 103.638 19.8807 102.218 18.5701C100.799 17.2596 99.1605 16.3312 97.3585 15.676C95.5018 15.0207 93.6452 14.693 91.7885 14.693C89.9319 14.693 88.0752 15.0207 86.2732 15.676C84.4166 16.3312 82.7783 17.2596 81.3586 18.5701C79.9388 19.8807 78.792 21.4643 77.9183 23.4302C77.0446 25.396 76.6077 27.7441 76.6077 30.3653C76.6077 33.041 77.0446 35.3345 77.9183 37.3004C78.792 39.2663 79.9934 40.9045 81.4132 42.215C82.833 43.5256 84.4166 44.5085 86.2732 45.1638C88.0752 45.8191 89.9319 46.0921 91.7885 46.0921ZM91.7885 41.6144C90.4234 41.6144 89.1128 41.3959 87.8568 40.9591C86.5462 40.5222 85.3995 39.8669 84.4166 38.9386C83.4336 38.0103 82.6145 36.8089 82.0138 35.3891C81.3586 33.9694 81.0855 32.3311 81.0855 30.3653C81.0855 28.454 81.3586 26.7612 81.9592 25.3414C82.5599 23.9216 83.379 22.7749 84.362 21.8466C85.3449 20.9729 86.4916 20.263 87.8022 19.8261C89.1128 19.3893 90.4234 19.1708 91.7885 19.1708C93.0991 19.1708 94.4097 19.3893 95.7202 19.8261C97.0308 20.263 98.1776 20.9729 99.1605 21.8466C100.143 22.7749 100.963 23.9216 101.563 25.3414C102.164 26.7612 102.492 28.454 102.492 30.3653C102.492 32.3311 102.164 33.9694 101.563 35.3891C100.963 36.8089 100.143 38.0103 99.1605 38.9386C98.1776 39.8669 97.0308 40.5222 95.7202 40.9591C94.4097 41.3959 93.0991 41.6144 91.7885 41.6144ZM120.882 30.3653V21.4643C120.882 20.9183 121.046 20.4814 121.428 20.0991C121.811 19.7715 122.247 19.5531 122.793 19.5531H129.51C130.002 19.5531 130.384 19.3893 130.711 19.007C130.985 18.6248 131.148 18.1879 131.148 17.6418C131.148 17.1504 130.985 16.7135 130.711 16.3312C130.384 15.949 130.002 15.7306 129.51 15.7306H122.793C122.247 15.7306 121.811 15.5667 121.428 15.1845C121.046 14.8023 120.882 14.3654 120.882 13.8193V2.78868C120.882 2.188 120.609 1.69654 120.172 1.36889C119.735 1.04125 119.189 0.87743 118.643 0.87743C118.043 0.87743 117.497 1.04125 117.06 1.36889C116.623 1.69654 116.404 2.188 116.404 2.78868V13.8193C116.404 14.3654 116.186 14.8023 115.804 15.1845C115.421 15.5667 114.985 15.7306 114.493 15.7306H112.637C112.09 15.7306 111.708 15.949 111.435 16.3312C111.162 16.7135 111.053 17.1504 111.053 17.6418C111.053 18.1879 111.162 18.6248 111.435 19.007C111.708 19.3893 112.09 19.5531 112.637 19.5531H114.493C114.985 19.5531 115.421 19.7715 115.804 20.0991C116.186 20.4814 116.404 20.9183 116.404 21.4643V30.3653C116.404 33.041 116.841 35.3345 117.715 37.3004C118.589 39.2663 119.79 40.9045 121.21 42.215C122.63 43.5256 124.213 44.5085 126.07 45.1638C127.872 45.8191 129.729 46.0921 131.585 46.0921C132.186 46.0921 132.677 45.8737 133.005 45.4369C133.333 45 133.551 44.4539 133.551 43.8532C133.551 43.3072 133.333 42.7611 133.005 42.3243C132.677 41.8874 132.186 41.6144 131.585 41.6144C130.22 41.6144 128.909 41.3959 127.599 40.9591C126.288 40.5222 125.142 39.8669 124.159 38.9386C123.176 38.0103 122.357 36.8089 121.756 35.3891C121.155 33.9694 120.882 32.3311 120.882 30.3653ZM168.082 42.8703V17.8056C168.082 17.1504 167.809 16.6043 167.372 16.222C166.881 15.8944 166.335 15.676 165.734 15.676C165.297 15.676 164.915 15.7852 164.588 15.949C164.205 16.1674 163.932 16.4405 163.768 16.8227C163.659 17.0411 163.495 17.2596 163.277 17.4234C163.059 17.5872 162.84 17.6418 162.622 17.6418C162.349 17.6418 162.076 17.5872 161.857 17.3688C160.547 16.4951 159.072 15.7852 157.543 15.3483C156.014 14.9115 154.431 14.6384 152.902 14.6384C151.045 14.6384 149.188 14.9661 147.386 15.6214C145.53 16.2766 143.946 17.205 142.526 18.5155C141.106 19.8261 139.905 21.4097 139.031 23.3756C138.158 25.3414 137.721 27.6895 137.721 30.3107C137.721 32.9864 138.158 35.2799 139.031 37.2458C139.905 39.2116 141.106 40.8499 142.526 42.1604C143.946 43.471 145.53 44.4539 147.386 45.1092C149.188 45.7645 151.045 46.0375 152.902 46.0375C154.431 46.0375 156.014 45.8191 157.543 45.3822C159.072 44.9454 160.547 44.2355 161.857 43.3072C162.076 43.1434 162.349 43.0341 162.622 43.0341C163.113 43.0341 163.495 43.3072 163.768 43.7986C163.932 44.2355 164.205 44.5085 164.588 44.727C164.915 44.9454 165.297 45 165.734 45C166.335 45 166.881 44.8362 167.372 44.4539C167.809 44.1263 168.082 43.5802 168.082 42.8703ZM152.902 19.1162C154.212 19.1162 155.523 19.3346 156.833 19.7715C158.144 20.2084 159.291 20.9183 160.274 21.792C161.256 22.7203 162.076 23.867 162.676 25.2868C163.277 26.7066 163.605 28.3994 163.605 30.3107C163.605 32.2765 163.277 33.9694 162.676 35.3891C162.076 36.8089 161.256 37.9557 160.274 38.884C159.291 39.8123 158.144 40.4676 156.833 40.9045C155.523 41.3413 154.212 41.5598 152.902 41.5598C151.536 41.5598 150.226 41.3413 148.915 40.9045C147.605 40.4676 146.458 39.8123 145.475 38.884C144.492 37.9557 143.673 36.8089 143.072 35.3891C142.472 33.9694 142.199 32.2765 142.199 30.3107C142.199 28.3994 142.472 26.7066 143.072 25.2868C143.673 23.867 144.492 22.7203 145.475 21.792C146.458 20.9183 147.605 20.2084 148.915 19.7715C150.171 19.3346 151.482 19.1162 152.902 19.1162ZM109.75 86.08C109.43 86.08 109.19 86 108.95 85.8C108.71 85.64 108.63 85.4 108.63 85.08V71.36C108.63 71.08 108.71 70.84 108.95 70.64C109.19 70.48 109.47 70.36 109.79 70.36H116.07C117.47 70.36 118.71 70.6 119.75 71.04C120.79 71.52 121.63 72.12 122.31 72.84C122.95 73.56 123.47 74.4 123.79 75.36C124.11 76.32 124.27 77.28 124.27 78.24C124.27 79.24 124.11 80.2 123.79 81.12C123.47 82.08 122.95 82.92 122.31 83.64C121.63 84.36 120.79 84.96 119.75 85.4C118.71 85.88 117.47 86.08 116.07 86.08H109.75ZM106.87 67.12C106.47 67.16 106.11 67.28 105.79 67.52C105.47 67.76 105.35 68.08 105.35 68.52V97.6C105.35 98.08 105.51 98.4 105.83 98.64C106.15 98.88 106.55 99 106.99 99C107.39 99 107.79 98.88 108.11 98.64C108.43 98.4 108.63 98.08 108.63 97.6V90.32C108.63 90.04 108.71 89.8 108.95 89.64C109.19 89.48 109.43 89.36 109.75 89.36H116.07C117.99 89.36 119.71 89.04 121.15 88.4C122.59 87.76 123.75 86.88 124.71 85.84C125.67 84.8 126.35 83.64 126.83 82.28C127.31 80.96 127.55 79.6 127.55 78.24C127.55 76.88 127.31 75.56 126.83 74.2C126.35 72.88 125.67 71.68 124.71 70.64C123.75 69.6 122.59 68.72 121.15 68.08C119.71 67.44 117.99 67.12 116.07 67.12H106.87ZM153.034 88.36C153.034 86.44 152.674 84.76 152.034 83.32C151.394 81.88 150.514 80.72 149.474 79.76C148.434 78.8 147.234 78.12 145.914 77.64C144.594 77.16 143.274 76.92 141.914 76.92C140.554 76.92 139.194 77.16 137.874 77.64C136.514 78.12 135.314 78.8 134.274 79.76C133.234 80.72 132.394 81.88 131.754 83.32C131.114 84.76 130.794 86.48 130.794 88.4C130.794 90.36 131.114 92.04 131.754 93.48C132.394 94.92 133.274 96.12 134.314 97.08C135.354 98.04 136.514 98.76 137.874 99.24C139.194 99.72 140.554 99.92 141.914 99.92C143.594 99.92 145.194 99.6 146.714 98.92C147.154 98.72 147.434 98.4 147.514 98C147.594 97.6 147.554 97.24 147.394 96.84C147.234 96.48 147.034 96.24 146.834 96.08C146.594 95.92 146.394 95.84 146.194 95.8C145.994 95.76 145.834 95.76 145.674 95.8C145.514 95.88 145.434 95.92 145.394 95.92C144.274 96.4 143.114 96.64 141.914 96.64C140.474 96.64 139.154 96.32 137.914 95.68C136.634 95.04 135.674 94.04 134.994 92.68L151.634 90.04C152.034 89.96 152.394 89.76 152.634 89.44C152.874 89.12 153.034 88.76 153.034 88.36ZM134.634 89.4C134.314 89.48 134.114 89.32 134.074 88.96V88.4C134.074 87 134.274 85.76 134.714 84.72C135.154 83.68 135.754 82.84 136.474 82.16C137.194 81.52 138.034 81 138.994 80.68C139.914 80.36 140.874 80.2 141.914 80.2C142.754 80.2 143.594 80.32 144.434 80.56C145.274 80.8 146.034 81.2 146.754 81.72C147.434 82.24 148.034 82.88 148.514 83.68C148.994 84.48 149.354 85.4 149.594 86.44C149.594 86.6 149.594 86.72 149.514 86.84C149.434 87 149.354 87.08 149.194 87.08L134.634 89.4ZM162.675 88.28V81.76C162.675 81.36 162.795 81.04 163.075 80.76C163.355 80.52 163.675 80.36 164.075 80.36H168.995C169.355 80.36 169.635 80.24 169.875 79.96C170.075 79.68 170.195 79.36 170.195 78.96C170.195 78.6 170.075 78.28 169.875 78C169.635 77.72 169.355 77.56 168.995 77.56H164.075C163.675 77.56 163.355 77.44 163.075 77.16C162.795 76.88 162.675 76.56 162.675 76.16V68.08C162.675 67.64 162.475 67.28 162.155 67.04C161.835 66.8 161.435 66.68 161.035 66.68C160.595 66.68 160.195 66.8 159.875 67.04C159.555 67.28 159.395 67.64 159.395 68.08V76.16C159.395 76.56 159.235 76.88 158.955 77.16C158.675 77.44 158.355 77.56 157.995 77.56H156.635C156.235 77.56 155.955 77.72 155.755 78C155.555 78.28 155.475 78.6 155.475 78.96C155.475 79.36 155.555 79.68 155.755 79.96C155.955 80.24 156.235 80.36 156.635 80.36H157.995C158.355 80.36 158.675 80.52 158.955 80.76C159.235 81.04 159.395 81.36 159.395 81.76V88.28C159.395 90.24 159.715 91.92 160.355 93.36C160.995 94.8 161.875 96 162.915 96.96C163.955 97.92 165.115 98.64 166.475 99.12C167.795 99.6 169.155 99.8 170.515 99.8C170.955 99.8 171.315 99.64 171.555 99.32C171.795 99 171.955 98.6 171.955 98.16C171.955 97.76 171.795 97.36 171.555 97.04C171.315 96.72 170.955 96.52 170.515 96.52C169.515 96.52 168.555 96.36 167.595 96.04C166.635 95.72 165.795 95.24 165.075 94.56C164.355 93.88 163.755 93 163.315 91.96C162.875 90.92 162.675 89.72 162.675 88.28Z" fill="black"/>
</svg>
