<svg width="25" height="25" viewBox="0 0 25 25" fill="none" xmlns="http://www.w3.org/2000/svg">
<path d="M24.375 10.825C24.3742 10.8244 24.3736 10.8237 24.3731 10.8231L14.175 0.625421C13.7403 0.190545 13.1624 -0.0488281 12.5477 -0.0488281C11.9329 -0.0488281 11.355 0.190545 10.9201 0.625421L0.727429 10.8179C0.723996 10.8214 0.720372 10.825 0.717129 10.8284C-0.175512 11.7262 -0.173986 13.1829 0.721516 14.0784C1.13064 14.4877 1.67081 14.7246 2.24854 14.7496C2.27219 14.7518 2.29584 14.753 2.31969 14.753H2.72595V22.2577C2.72595 23.7429 3.93445 24.9512 5.41971 24.9512H9.40951C9.81406 24.9512 10.1419 24.6232 10.1419 24.2188V18.335C10.1419 17.6573 10.6933 17.1061 11.371 17.1061H13.7243C14.402 17.1061 14.9532 17.6573 14.9532 18.335V24.2188C14.9532 24.6232 15.2811 24.9512 15.6856 24.9512H19.6754C21.1609 24.9512 22.3692 23.7429 22.3692 22.2577V14.753H22.7461C23.3606 14.753 23.9386 14.5136 24.3736 14.0785C25.2701 13.1817 25.2705 11.7224 24.375 10.825ZM23.3378 13.0429C23.1796 13.201 22.9694 13.2881 22.7461 13.2881H21.6368C21.2322 13.2881 20.9044 13.616 20.9044 14.0206V22.2577C20.9044 22.9351 20.3531 23.4864 19.6754 23.4864H16.4181V18.335C16.4181 16.8497 15.2098 15.6412 13.7243 15.6412H11.371C9.88558 15.6412 8.67708 16.8497 8.67708 18.335V23.4864H5.41971C4.74221 23.4864 4.1908 22.9351 4.1908 22.2577V14.0206C4.1908 13.616 3.86293 13.2881 3.45838 13.2881H2.36813C2.35669 13.2874 2.34544 13.2868 2.3338 13.2866C2.1156 13.2828 1.91094 13.1962 1.75759 13.0427C1.43143 12.7165 1.43143 12.1857 1.75759 11.8593C1.75778 11.8593 1.75778 11.8592 1.75797 11.859L1.75854 11.8584L11.9562 1.66111C12.1141 1.50299 12.3241 1.41602 12.5477 1.41602C12.771 1.41602 12.981 1.50299 13.1391 1.66111L23.3345 11.8563C23.336 11.8578 23.3378 11.8593 23.3393 11.8609C23.6637 12.1876 23.6632 12.7173 23.3378 13.0429Z" fill="white"/>
</svg>
