<svg width="73" height="71" viewBox="0 0 73 71" fill="none" xmlns="http://www.w3.org/2000/svg">
<path d="M66.6168 27.5127C70.3911 23.3173 75.0986 15.973 71.4622 8.0394C67.5518 -0.493316 59.9913 0.192185 55.7564 1.39725C55.0755 1.59123 55.1144 2.56397 55.8062 2.71561C58.4623 3.29926 62.2143 5.23502 64.5677 11.2312C66.9607 17.3303 64.3131 22.5877 61.8452 25.7926C60.9611 25.6747 60.0353 25.6244 59.0837 25.6244H39.2557C39.2557 25.6244 32.11 25.8922 30.592 16.6929C29.0733 7.49294 24.0717 6.95736 20.3203 6.95736C13.8006 6.95736 11.6417 13.2671 11.6417 13.2671L0.227356 15.9353C0.227356 15.9353 0.565529 28.7275 13.4527 27.3427C13.4527 27.3427 23.5453 38.1854 24.4127 42.1628C25.0662 45.1572 25.2275 59.6677 25.2676 66.6595C25.2796 68.7515 26.9785 70.44 29.071 70.44C31.1716 70.44 32.8745 68.7372 32.8745 66.6372V50.4077H53.6352C53.6352 50.4077 55.2431 55.902 59.3515 57.5099V66.5553C59.3515 68.7005 61.091 70.44 63.2368 70.44C65.3826 70.44 67.1221 68.7005 67.1221 66.5553V51.1688C67.1221 51.1688 70.1588 44.827 70.1588 36.2525C70.1588 31.7687 68.7906 29.0691 66.6168 27.5127Z" fill="#F4CD57"/>
</svg>
