<svg width="19" height="14" viewBox="0 0 19 14" fill="none" xmlns="http://www.w3.org/2000/svg">
<path d="M1.41778 1.3462C0.834391 1.25621 0.286004 1.65746 0.196011 2.24228C0.123016 2.71724 0.0858765 3.20278 0.0858765 3.68517C0.0858765 8.88093 4.31299 13.108 9.50875 13.108C14.7045 13.108 18.9316 8.88093 18.9316 3.68517C18.9316 2.80409 18.8075 1.9263 18.5627 1.07565C18.3989 0.506835 17.804 0.178144 17.2369 0.342418C16.6684 0.50612 16.34 1.09965 16.5037 1.66818C16.6929 2.32598 16.7889 3.0045 16.7889 3.68503C16.7889 7.69944 13.5232 10.9652 9.50875 10.9652C5.49433 10.9652 2.22857 7.69944 2.22857 3.68503C2.22857 3.31134 2.25714 2.93551 2.31385 2.56782C2.40399 1.98315 2.00273 1.43619 1.41778 1.3462Z" fill="black"/>
</svg>
