<svg width="40" height="35" viewBox="0 0 40 35" fill="none" xmlns="http://www.w3.org/2000/svg">
<path d="M18.9971 34.6512C19.2695 34.8839 19.6069 35 19.9449 35C20.2829 35 20.6209 34.8839 20.8927 34.6512C32.6978 24.5495 40 19.4373 40 11.4929C40 5.20823 35.4938 0 29.1631 0C25.0056 0 21.8219 2.36611 19.7714 5.91695C17.7254 2.37392 14.5451 0 10.3814 0C5.53494 0 1.48312 3.10105 0.0588472 7.89968C-0.166097 8.65695 0.273618 9.45049 1.04058 9.67259C1.80753 9.89469 2.61123 9.46053 2.83561 8.70326C3.88968 5.15187 6.85126 2.85719 10.3814 2.85719C14.509 2.85719 17.4044 6.47611 18.3771 9.84558C18.5506 10.4645 19.1215 10.893 19.7714 10.893C20.4219 10.893 20.9922 10.4645 21.1657 9.84558C21.1855 9.77583 23.1953 2.85719 29.1631 2.85719C33.6914 2.85719 37.1062 6.5693 37.1062 11.4929C37.1062 17.8479 30.8146 22.4295 19.9438 31.6841C13.3204 26.0679 8.05906 22.1147 5.06866 18.2475C4.58373 17.6203 3.67604 17.4997 3.04077 17.9785C2.4055 18.4573 2.28399 19.3535 2.76835 19.9813C6.13912 24.3402 11.8294 28.5166 18.9971 34.6512Z" fill="black"/>
</svg>
