<svg width="61" height="75" viewBox="0 0 61 75" fill="none" xmlns="http://www.w3.org/2000/svg">
<path d="M60.2586 40.254C60.2592 37.3037 60.1058 34.615 59.8026 32.2621C59.7253 31.6572 59.1709 31.2309 58.5672 31.3082C57.9624 31.386 57.5355 31.9393 57.6127 32.5436C57.904 34.8038 58.051 37.3976 58.0505 40.2535C58.0493 45.7226 56.8775 50.6361 54.5675 54.8584C52.721 58.2344 50.1409 61.1893 46.8994 63.6406C45.4809 64.7135 44.0555 65.5958 42.7177 66.3162C43.2258 65.1879 43.4764 63.8924 43.4764 62.4138C43.4764 62.2667 43.473 62.1111 43.4673 61.9515C45.2314 60.7384 46.825 59.194 48.2103 57.3492C48.5765 56.8617 48.4781 56.1699 47.9905 55.8037C47.503 55.4375 46.8112 55.5359 46.445 56.0234C45.4763 57.3132 44.3982 58.4358 43.2269 59.3794C42.1781 51.6255 38.116 37.5441 36.9281 33.518C38.8639 32.7913 40.7218 31.196 41.8846 28.8941L43.4564 29.7484C43.9857 30.035 44.6666 29.8336 44.9533 29.3049C45.2445 28.7693 45.046 28.0993 44.5104 27.808L42.6788 26.8129C42.8968 26.0107 43.0364 25.1495 43.0827 24.2334L44.8984 23.9233C45.4997 23.8209 45.9037 23.251 45.8013 22.6496C45.6983 22.0488 45.1284 21.6454 44.527 21.7472L42.926 22.0202C42.1117 17.4528 38.6241 11.7096 37.7458 10.3151C37.7744 9.57414 37.8145 7.81232 37.6514 5.98356C37.3264 2.33747 36.3571 0.397122 34.6885 0.0520825C33.0503 -0.28609 31.4023 1.02369 29.6502 4.05866C28.9132 5.33468 28.3244 6.62557 27.9943 7.39461H18.4396C18.1095 6.62557 17.5207 5.33468 16.7837 4.05866C15.0316 1.02369 13.3836 -0.286663 11.7454 0.0520825C10.0768 0.397122 9.10753 2.33747 8.78252 5.98356C8.61944 7.81175 8.6595 9.57414 8.68868 10.3151C7.80977 11.7096 4.32276 17.4528 3.50794 22.0202L1.90691 21.7472C1.3061 21.6448 0.735608 22.0488 0.633183 22.6496C0.530758 23.251 0.934735 23.8209 1.53555 23.9233L3.35115 24.2334C3.3975 25.1495 3.53769 26.0107 3.75513 26.8129L1.9235 27.808C1.38792 28.0993 1.18994 28.7693 1.48062 29.3049C1.76786 29.8336 2.44822 30.0356 2.9775 29.7484L4.54935 28.8941C5.71264 31.1966 7.57059 32.7919 9.50693 33.518C9.19222 34.5869 8.67037 36.3814 8.05925 38.5655C7.89503 39.1525 8.23778 39.7619 8.82486 39.9262C9.41194 40.091 10.0213 39.7476 10.1856 39.1605C11.1766 35.6163 11.9314 33.1078 11.9388 33.0826C12.1253 32.4646 11.7225 31.8014 11.0891 31.6801C8.45751 31.1772 5.70921 28.3676 5.54785 23.9725C5.48147 22.1598 6.34207 19.3995 8.03694 15.9908C9.35644 13.3381 10.7189 11.2375 10.7326 11.2169C10.8613 11.019 10.9231 10.7855 10.9094 10.5497C10.9083 10.5286 10.7864 8.37423 10.9815 6.17982C11.2584 3.07504 11.9497 2.26423 12.1929 2.21444C12.4343 2.16295 13.3848 2.59324 14.861 5.14413C15.9116 6.95916 16.6669 8.88063 16.6744 8.90008C16.8392 9.32351 17.2477 9.60218 17.7026 9.60218H28.7319C29.1868 9.60218 29.5947 9.32351 29.7601 8.90008C29.7675 8.88063 30.5137 6.97862 31.562 5.16301C33.0446 2.5961 33.9996 2.16409 34.2416 2.21444C34.4837 2.26423 35.1726 3.07103 35.4507 6.15922C35.6481 8.3542 35.5262 10.5286 35.5245 10.5503C35.5113 10.7855 35.5731 11.0195 35.7019 11.2169C35.7156 11.2375 37.078 13.3381 38.3975 15.9914C40.0924 19.3995 40.953 22.1598 40.8861 23.9725C40.7253 28.3676 37.9764 31.1772 35.3448 31.6801C34.7114 31.8014 34.3091 32.4652 34.4951 33.0832C34.5632 33.308 41.2689 55.6475 41.2689 62.4138C41.2689 64.6774 40.565 66.2865 39.0544 67.4778C37.7698 68.4906 35.8678 69.2213 33.2734 69.6968C33.8857 67.2798 34.4287 63.9296 34.8882 59.7399C35.6664 52.644 35.9428 45.4559 35.9456 45.3844C35.9685 44.775 35.4936 44.2623 34.8842 44.2394C34.2794 44.2137 33.7627 44.6915 33.7392 45.3009C33.7369 45.3673 33.4806 52.022 32.7688 58.7998C32.3528 62.756 31.8664 65.9741 31.3228 68.3642C30.5366 71.8186 29.8425 72.6048 29.644 72.7661C29.3441 72.5441 27.8982 70.9345 27.0633 60.3253C26.5827 54.2164 26.554 48.2105 26.554 48.1505C26.5518 47.5422 26.0579 47.0507 25.4503 47.0507H25.4457C24.8363 47.053 24.3442 47.5491 24.3465 48.1585C24.3465 48.2237 24.3768 54.7125 24.913 61.1172C25.23 64.9103 25.6608 67.9442 26.1936 70.1351C26.2107 70.2061 26.229 70.2776 26.2468 70.3503C25.2998 70.3795 24.2984 70.3943 23.217 70.3943C22.1355 70.3943 21.1347 70.3795 20.1871 70.3503C20.2054 70.2776 20.2232 70.2055 20.2403 70.1351C20.7731 67.9442 21.2045 64.9103 21.5215 61.1172C22.0571 54.7125 22.0874 48.2237 22.088 48.1585C22.0903 47.5491 21.5976 47.053 20.9882 47.0507H20.9836C20.376 47.0507 19.8821 47.5422 19.8799 48.1505C19.8799 48.2105 19.8518 54.2055 19.3717 60.3144C18.5369 70.9339 17.0898 72.5441 16.7899 72.7661C16.652 72.654 16.2761 72.2408 15.7966 70.847C15.7777 70.7503 15.7468 70.6576 15.7045 70.5712C15.5179 69.9944 15.3177 69.2722 15.1111 68.3642C14.5675 65.9741 14.0811 62.756 13.6651 58.7998C12.9533 52.022 12.697 45.3673 12.6947 45.3009C12.6712 44.6915 12.1585 44.2131 11.5497 44.2394C10.9403 44.2623 10.4654 44.775 10.4883 45.3844C10.4911 45.4559 10.7681 52.644 11.5457 59.7399C12.0052 63.9301 12.5488 67.2798 13.161 69.6968C10.5718 69.2225 8.67266 68.4946 7.38863 67.4853C5.87172 66.2928 5.16504 64.6814 5.16504 62.4138C5.16504 59.4298 6.50057 52.854 9.02628 43.3977C9.18363 42.8084 8.83402 42.2035 8.24465 42.0462C7.65642 41.8894 7.05103 42.2384 6.8931 42.8278C4.28156 52.6045 2.95748 59.1946 2.95748 62.4138C2.95748 65.3721 3.96055 67.5985 6.02392 69.2207C7.78288 70.6032 10.3589 71.5325 13.8837 72.0537C14.5091 73.6777 15.4006 75 16.7768 75C18.0723 75 18.9128 73.8836 19.4839 72.535C20.6403 72.5796 21.8688 72.6019 23.217 72.6019C24.5651 72.6019 25.7936 72.5796 26.95 72.535C27.5211 73.8836 28.3616 75 29.6571 75C31.0338 75 31.9248 73.6777 32.5508 72.0537C33.8359 71.8632 34.9935 71.6177 36.0326 71.3167C36.519 71.2155 60.2529 65.807 60.2586 40.254Z" fill="black"/>
</svg>
