<svg width="83" height="74" viewBox="0 0 83 74" fill="none" xmlns="http://www.w3.org/2000/svg">
<path d="M6.00771 52.3049C4.59133 51.5968 2.92597 51.7489 1.66036 52.6978C0.621589 53.4779 0.00192261 54.7186 0.00192261 56.016V65.6983C0.00192261 66.1755 0.248129 66.6181 0.652019 66.8713L11.7175 73.7872C11.9374 73.9241 12.1905 73.9974 12.4506 73.9974H40.1142H45.647H74.6938C74.9082 73.9974 75.1212 73.9476 75.3121 73.8522L80.8448 71.0858C81.0952 70.9613 81.2999 70.7635 81.4355 70.5201C81.5793 70.2628 84.8879 64.1602 81.4272 58.0977C78.5073 52.9772 73.1557 52.0186 72.1114 51.8789C72.0506 51.8706 71.9897 51.8665 71.9275 51.8665H57.2851L56.7055 51.2869C57.4511 51.0269 58.1648 50.6866 58.826 50.2744C59.5051 49.8512 60.0819 49.3754 60.5923 48.8816L66.0144 50.4307L66.7737 47.7709L62.4361 46.5315C63.0087 45.5536 63.3683 44.6338 63.5689 43.9671C63.6076 43.8371 63.6284 43.7029 63.6284 43.5674V40.7249L66.9397 39.3058L65.8511 36.7635L63.6284 37.7165V36.6515C63.6284 36.4011 63.5606 36.1549 63.4306 35.9391L59.281 29.0232C59.0625 28.658 58.6862 28.4146 58.2644 28.362C57.848 28.3164 57.4206 28.4547 57.1177 28.7576L53.3734 32.5019H52.5629V15.0932L54.5187 13.1373H56.2933L60.0943 15.6713C60.7306 16.096 61.5882 15.9231 62.0128 15.2882L64.7792 11.1386C65.089 10.6739 65.089 10.0694 64.7792 9.60468L59.2464 1.30558C58.9892 0.919674 58.5576 0.688683 58.0956 0.688683H53.9461C53.4219 0.688683 52.9433 0.984684 52.7081 1.45358L50.3249 6.22142H35.4363L33.0517 1.45358C32.818 0.984684 32.3394 0.688683 31.8151 0.688683H26.2824C25.8356 0.688683 25.4165 0.904459 25.1579 1.26824L18.242 10.9505C17.8491 11.4996 17.9114 12.2535 18.3886 12.7321L21.1549 15.4984C21.6211 15.9659 22.3514 16.0351 22.9005 15.6713L26.7015 13.1373H29.8593L30.432 13.71V28.7452C26.7804 30.0716 16.8104 34.6223 12.5405 45.8427C10.0217 52.4626 10.5805 58.6427 11.5086 62.6913L8.30102 60.7659V56.016C8.30102 54.4337 7.42132 53.0117 6.00771 52.3049ZM53.9461 35.2683C54.314 35.2683 54.6653 35.123 54.924 34.863L57.8218 31.9666L60.862 37.0346V38.9019L56.1675 40.913L57.256 43.4553L60.862 41.9103V43.3557C60.6545 43.9934 60.2824 44.862 59.6642 45.739L57.0928 45.0045L56.3335 47.6644L57.3266 47.9479C56.2712 48.5966 55.0927 48.9881 53.8188 49.107C53.2849 49.1568 52.8271 49.5109 52.6459 50.0144C52.4633 50.5193 52.5892 51.0822 52.9682 51.4612L55.7345 54.2276C55.9932 54.4876 56.3445 54.6328 56.7124 54.6328H71.8293C72.6204 54.7532 76.8018 55.5679 79.026 59.4685C81.3027 63.4589 79.7466 67.5988 79.1919 68.8188L74.3674 71.231H61.8579L60.862 68.2406V64.7342L62.6325 62.0785C62.8524 61.7466 63.2231 61.5488 63.6201 61.5488C64.2176 61.5488 64.5247 61.943 64.6284 62.1117C64.7335 62.2818 64.9479 62.7328 64.681 63.2653L63.7736 65.08C63.508 65.6125 63.6118 66.2557 64.0336 66.6762L65.4168 68.0594C65.6755 68.3194 66.0268 68.4647 66.3947 68.4647H73.3106V65.6983H66.9674L66.6949 65.4258L67.1569 64.5032C67.7738 63.2694 67.7074 61.8309 66.9826 60.658C66.2578 59.4851 64.9991 58.7824 63.6201 58.7824C62.2964 58.7824 61.0667 59.4408 60.3309 60.5418L58.328 63.5475C58.1772 63.7757 58.0956 64.0426 58.0956 64.3151V68.4647C58.0956 68.6127 58.1205 68.7607 58.1676 68.9018L58.9435 71.231H53.9461V61.5488H51.1797V71.231H47.0302V61.5446V50.4833C47.0302 49.7696 46.4866 49.172 45.7756 49.1056C44.7631 49.0116 43.8129 48.7405 42.9346 48.3089L44.7507 47.6284L43.7783 45.0377L40.3757 46.3144C39.478 45.2549 38.9842 44.1345 38.7311 43.3557V42.9048V41.9089L42.3356 43.454L43.4242 40.9117L38.7311 38.9019V37.0346L41.7713 31.9666L44.6691 34.863C44.9277 35.123 45.279 35.2683 45.647 35.2683H51.1797H53.9461ZM13.1214 66.8837C13.6235 67.1852 14.2625 67.1382 14.7148 66.7634C15.1658 66.3885 15.3331 65.7716 15.1312 65.2211C14.0966 62.405 12.0246 54.9745 15.1257 46.8248C15.329 46.2895 15.56 45.786 15.791 45.2839L15.7937 45.2853C20.4509 35.1645 30.2978 31.6554 32.2259 31.0551C32.8055 30.8767 33.1983 30.3414 33.1983 29.7355V13.1373C33.1983 12.7708 33.0531 12.4181 32.7931 12.1594L31.4099 10.7762C31.1512 10.5162 30.7999 10.371 30.432 10.371H26.2824C26.0099 10.371 25.7416 10.4526 25.5147 10.6033L22.3085 12.7404L21.1729 11.6048L26.9947 3.45505H30.9603L33.3449 8.22288C33.5787 8.69178 34.0573 8.98778 34.5815 8.98778H51.1797C51.7039 8.98778 52.1825 8.69178 52.4177 8.22288L54.8009 3.45505H57.3556L61.9658 10.371L60.4789 12.602L57.4801 10.6033C57.2533 10.4526 56.9849 10.371 56.7124 10.371H53.9461C53.5782 10.371 53.2268 10.5162 52.9682 10.7762L50.2018 13.5426C49.9418 13.8013 49.7965 14.154 49.7965 14.5205V32.5019H46.2196L42.4753 28.7576C42.1738 28.4547 41.7492 28.3122 41.3287 28.362C40.9054 28.4146 40.5306 28.658 40.312 29.0232L36.1625 35.9391C36.0325 36.1549 35.9647 36.4011 35.9647 36.6515V37.7165L33.7433 36.7649L32.6547 39.3072L35.9647 40.7249V42.9062V43.5674C35.9647 43.7029 35.9854 43.8371 36.0242 43.9671C36.2787 44.8136 36.7808 46.0613 37.6729 47.3282L32.7128 49.1886L33.6852 51.7793L39.7076 49.5206C40.034 49.7834 40.3867 50.0365 40.7685 50.2744C41.8294 50.9356 43.0189 51.4086 44.2652 51.6714V60.1573L36.074 60.131L36.0657 62.8974L44.2638 62.9236V71.231H41.4974C41.4974 68.1797 39.016 65.6983 35.9647 65.6983H33.1983C33.1983 58.8349 27.6144 53.2497 20.7497 53.2497H19.3665V56.016H20.7497C26.0874 56.016 30.432 60.3592 30.432 65.6983V67.0815C30.432 67.845 31.0502 68.4647 31.8151 68.4647H35.9647C37.4903 68.4647 38.7311 69.7054 38.7311 71.231H12.8475L2.76829 64.932V56.016C2.76829 55.5831 2.97438 55.1695 3.32018 54.9095C3.74897 54.5886 4.28979 54.5388 4.76976 54.7795C5.24834 55.0188 5.53466 55.4807 5.53466 56.016V61.5488C5.53466 62.0343 5.79054 62.4852 6.2055 62.7341L13.1214 66.8837Z" fill="#2D2D2D"/>
</svg>
