<svg width="83" height="55" viewBox="0 0 83 55" fill="none" xmlns="http://www.w3.org/2000/svg">
<path d="M12.297 48.9472C3.95367 38.352 0.887155 27.4927 3.8859 19.1548C6.12665 12.9222 13.3593 3.42113 24.0956 2.79178C31.0253 2.40311 36.5567 8.12672 39.2138 10.8862C39.7214 11.4118 40.1322 11.8364 40.4365 12.1061C40.6039 12.2555 40.8072 12.362 41.0244 12.416L41.1668 12.4506C41.6081 12.5598 42.0784 12.445 42.4186 12.1407C42.7132 11.8793 43.1102 11.4726 43.6012 10.9678C46.3026 8.19311 51.9418 2.43215 58.9006 2.82498C69.6383 3.45571 76.8696 12.9568 79.1103 19.1894C82.5199 28.667 78.0854 41.3107 67.2495 53.011L69.2787 54.8908C80.831 42.4172 85.4799 28.7209 81.7149 18.253C79.2238 11.3302 71.1377 0.772334 59.0625 0.0641442C50.8547 -0.429652 44.6068 5.96895 41.6178 9.03962C41.5597 9.0991 41.5016 9.15858 41.4463 9.21529C41.3688 9.13645 41.29 9.05345 41.2056 8.96631C38.2622 5.90948 32.0904 -0.464232 23.9338 0.0309478C11.8586 0.739138 3.77248 11.2956 1.28136 18.2198C-2.04519 27.4733 1.17624 39.2968 10.1213 50.6582L12.297 48.9472Z" fill="#2D2D2D"/>
</svg>
