<svg width="59" height="29" viewBox="0 0 59 29" fill="none" xmlns="http://www.w3.org/2000/svg">
<path d="M35.9111 13.9361L53.4068 7.84601C55.2841 7.16008 57.5077 7.80806 58.4559 9.58435C59.7436 11.9956 58.6164 14.6549 56.4298 15.5414L29.6721 27.4707C27.4837 28.4783 25.108 29 22.7048 29C19.655 29 16.6616 28.1606 14.047 26.5712L6.55725 22.0212C4.82872 20.9716 2.0088 20.3825 0 20.3089C0 20.3061 0 0 0 0H11.3373C12.8141 0 14.2646 0.384031 15.5507 1.11754L23.1177 5.42741C23.5473 5.6721 24.0295 5.80011 24.5223 5.80011H33.796C36.1689 5.80011 38.0922 7.74746 38.0922 10.1502C38.0922 11.7741 37.2145 13.189 35.9111 13.9361Z" fill="#A6835F"/>
</svg>
